Coordinates
version=1
nRows=54
nColumns=12
inDegrees=yes

Units are S.I. units (second, meters, Newtons, ...)
Angles are in degrees

endheader
time	SC_y	SC_z	SC_x	AC_y	AC_z	AC_x	GH_y	GH_z	GH_yy	EL_x	PS_y
       0.0              -53.46          35.14          42.67          60.18          5.897          8.374           73.3          34.76         -120.5          134.6          155.5
   0.01037              -53.46          35.14          42.67          60.18          5.895          8.372          73.27          34.76         -120.5          134.6          155.5
   0.02074              -53.45          35.13          42.68          60.17          5.894           8.37          73.24          34.75         -120.5          134.6          155.5
   0.03111              -53.45          35.13          42.68          60.17          5.893          8.368          73.21          34.75         -120.5          134.6          155.5
   0.04148              -53.45          35.12          42.68          60.16          5.891          8.366          73.18          34.74         -120.5          134.6          155.5
   0.05185              -53.45          35.12          42.69          60.16          5.889          8.364          73.14          34.74         -120.4          134.6          155.5
   0.06222              -53.45          35.11          42.69          60.16          5.888          8.362           73.1          34.73         -120.4          134.6          155.4
   0.07259              -53.45          35.11           42.7          60.15          5.886          8.359          73.06          34.73         -120.4          134.6          155.4
   0.08297              -53.45           35.1           42.7          60.15          5.884          8.356          73.02          34.72         -120.4          134.6          155.4
   0.09334              -53.44          35.09          42.71          60.14          5.882          8.354          72.97          34.71         -120.4          134.6          155.4
    0.1037              -53.44          35.08          42.71          60.13           5.88           8.35          72.92          34.71         -120.4          134.6          155.4
    0.1141              -53.44          35.08          42.72          60.13          5.877          8.347          72.86           34.7         -120.4          134.5          155.4
    0.1244              -53.44          35.07          42.73          60.12          5.874          8.343          72.81          34.69         -120.4          134.5          155.4
    0.1348              -53.44          35.06          42.74          60.11          5.872          8.339          72.74          34.68         -120.3          134.5          155.4
    0.1452              -53.43          35.05          42.74          60.11          5.869          8.335          72.67          34.67         -120.3          134.5          155.4
    0.1556              -53.43          35.04          42.75           60.1          5.865          8.331           72.6          34.66         -120.3          134.5          155.3
    0.1659              -53.43          35.02          42.76          60.09          5.862          8.326          72.52          34.65         -120.3          134.5          155.3
    0.1763              -53.43          35.01          42.77          60.08          5.858           8.32          72.43          34.64         -120.3          134.5          155.3
    0.1867              -53.42          34.99          42.78          60.07          5.853          8.314          72.33          34.62         -120.2          134.4          155.3
     0.197              -53.42          34.98           42.8          60.06          5.849          8.308          72.23          34.61         -120.2          134.4          155.3
    0.2074              -53.42          34.96          42.81          60.04          5.843            8.3          72.11          34.59         -120.2          134.4          155.3
    0.2178              -53.41          34.94          42.82          60.03          5.838          8.292          71.98          34.58         -120.1          134.4          155.2
    0.2282              -53.41          34.92          42.84          60.01          5.831          8.284          71.84          34.56         -120.1          134.4          155.2
    0.2385               -53.4          34.89          42.86          59.99          5.824          8.274          71.69          34.53         -120.1          134.3          155.2
    0.2489               -53.4          34.87          42.88          59.97          5.817          8.263          71.51          34.51         -120.0          134.3          155.1
    0.2593              -53.39          34.84           42.9          59.95          5.808          8.251          71.32          34.48         -120.0          134.3          155.1
    0.2696              -53.38           34.8          42.93          59.93          5.798          8.238           71.1          34.45         -119.9          134.2          155.1
      0.28              -53.37          34.77          42.96           59.9          5.787          8.223          70.86          34.42         -119.9          134.2          155.0
    0.2904              -53.36          34.72          42.99          59.87          5.775          8.206          70.58          34.38         -119.8          134.1          155.0
    0.3008              -53.35          34.68          43.03          59.83          5.761          8.186          70.27          34.33         -119.7          134.1          154.9
    0.3111              -53.34          34.62          43.07          59.79          5.745          8.164          69.91          34.28         -119.6          134.0          154.9
    0.3215              -53.33          34.56          43.12          59.75          5.727          8.139           69.5          34.23         -119.5          133.9          154.8
    0.3319              -53.31          34.48          43.17          59.69          5.706          8.109          69.02          34.16         -119.4          133.8          154.7
    0.3422              -53.29           34.4          43.24          59.63          5.681          8.075          68.47          34.08         -119.2          133.7          154.6
    0.3526              -53.27           34.3          43.31          59.56          5.652          8.035          67.83          33.99         -119.1          133.6          154.5
     0.363              -53.25          34.18           43.4          59.47          5.618          7.988          67.06          33.88         -118.9          133.5          154.3
    0.3733              -53.21          34.04          43.51          59.37          5.578          7.932          66.16          33.76         -118.7          133.3          154.2
    0.3837              -53.18          33.88          43.63          59.24           5.53          7.865          65.08           33.6         -118.4          133.1          154.0
    0.3941              -53.13          33.68          43.79          59.09          5.471          7.784          63.77          33.42         -118.0          132.9          153.7
    0.4045              -53.08          33.43          43.98          58.91            5.4          7.685          62.17          33.19         -117.6          132.6          153.4
    0.4148              -53.01          33.13          44.21          58.69          5.312          7.563          60.19          32.92         -117.1          132.2          153.0
    0.4252              -52.93          32.75           44.5          58.41          5.202           7.41          57.73          32.57         -116.5          131.7          152.6
    0.4356              -52.82          32.27          44.86          58.05          5.063          7.218          54.62          32.13         -115.7          131.1          152.0
    0.4459              -52.69          31.66          45.32          57.61          4.887          6.974          50.68          31.58         -114.7          130.4          151.3
    0.4563              -52.52          30.88          45.91          57.03          4.662          6.661          45.63          30.87         -113.4          129.5          150.3
    0.4667               -52.3          29.89          46.67           56.3          4.373           6.26          39.15          29.96         -111.7          128.3          149.1
    0.4771              -52.02          28.61          47.64          55.35          4.004          5.748          30.87          28.79         -109.6          126.7          147.6
    0.4874              -51.67          27.01          48.86          54.17           3.54          5.103          20.46          27.33         -106.9          124.8          145.7
    0.4978              -51.24          25.06          50.35          52.73          2.974          4.318          7.776          25.54         -103.7          122.4          143.3
    0.5082              -50.74          22.79          52.07          51.06          2.318          3.408         -6.927          23.47         -99.94          119.7          140.6
    0.5185               -50.2          20.34          53.94          49.25          1.608          2.423         -22.85          21.23         -95.86          116.7          137.7
    0.5289              -49.66          17.89           55.8          47.44          0.898          1.437         -38.77          18.99         -91.78          113.7          134.7
    0.5393              -49.17          15.63          57.53          45.77         0.2422         0.5271         -53.47          16.92         -88.01          111.0          132.0
    0.5496              -48.74          13.68          59.01          44.32        -0.3235         -0.258         -66.15          15.14         -84.77          108.6          129.6
